<?xml version="1.0" encoding="UTF-8"?>
<svg width="752pt" height="752pt" version="1.1" viewBox="0 0 752 752" xmlns="http://www.w3.org/2000/svg">
 <path d="m434.25 452.72 67.723-67.723c2.8398-2.8398 2.8398-7.5781 0-10.418l-67.723-68.195c-4.2617-4.2617-11.367-0.94531-11.367 5.2109l0.003907 40.727c-27.941 2.8398-53.516 13.734-73.879 30.781-0.94531 0.47266-1.4219 1.4219-1.8945 1.8945v-105.14h43.57c6.1562 0 9.4727-7.1055 5.2109-11.367l-67.727-67.719c-2.8398-2.8398-7.5781-2.8398-10.418 0l-68.195 67.723c-4.2617 4.2617-0.94531 11.367 5.2109 11.367l45.461-0.003907v204.59 3.7891 59.199c0 3.3164 2.8398 6.6289 6.6289 6.6289h38.359c3.3164 0 6.6289-2.8398 6.6289-6.6289l0.003906-59.199c0-42.621 31.258-77.668 71.984-83.824v43.57c-0.94531 5.6836 6.1562 9 10.418 4.7383z"/>
</svg>
